<?xml version="1.0" encoding="UTF-8"?>
<svg id="Layer_1" data-name="Layer 1" xmlns="http://www.w3.org/2000/svg" viewBox="0 0 138.7 24.6">
  <defs>
    <style>
      .cls-1 {
        fill: #fff;
        stroke-width: 0px;
      }
    </style>
  </defs>
  <g id="Font">
    <path class="cls-1" d="M37.72,9h2.51v-2.4c0-2.9,1.61-4.8,4.83-4.8l1.61.3v2.9l-1.71-.3c-1.01,0-1.41.6-1.41,1.6v2.7h3.22v2.9h-3.32v12.1h-3.22v-12.2h-2.51v-2.8Z"/>
    <path class="cls-1" d="M54.92,8.7c4.12,0,7.85,3.2,7.85,7.8s-3.62,7.8-7.85,7.8-7.85-3.2-7.85-7.8c.1-4.7,3.72-7.8,7.85-7.8ZM54.92,21.4c3.02,0,4.63-2.2,4.63-4.9s-1.61-4.9-4.63-4.9-4.63,2.2-4.63,4.9c0,2.6,1.61,4.9,4.63,4.9Z"/>
    <path class="cls-1" d="M72.02,8.7c4.12,0,7.85,3.2,7.85,7.8s-3.62,7.8-7.85,7.8-7.85-3.2-7.85-7.8,3.72-7.8,7.85-7.8ZM72.02,21.4c3.02,0,4.63-2.2,4.63-4.9s-1.61-4.9-4.63-4.9-4.63,2.2-4.63,4.9,1.61,4.9,4.63,4.9Z"/>
    <path class="cls-1" d="M96.56,23.9h-2.92l-.3-1.3-.2-.2-.2.2c-1.01,1-2.51,1.6-4.12,1.6-4.12,0-7.64-3.2-7.64-7.8s3.52-7.8,7.64-7.8c1.61,0,3.22.6,4.12,1.6l.2.2.2-.2V1.9h3.22s0,22,0,22ZM89.01,11.5c-3.02,0-4.63,2.2-4.63,4.9s1.61,4.9,4.63,4.9c2.72,0,4.63-2.2,4.63-4.9s-1.91-4.9-4.63-4.9Z"/>
    <path class="cls-1" d="M106.41,8.7c4.12,0,7.85,3.2,7.85,7.8s-3.62,7.8-7.85,7.8-7.85-3.2-7.85-7.8c0-4.7,3.72-7.8,7.85-7.8ZM106.41,21.4c3.02,0,4.63-2.2,4.63-4.9s-1.61-4.9-4.63-4.9-4.63,2.2-4.63,4.9,1.61,4.9,4.63,4.9Z"/>
    <path class="cls-1" d="M116.27,9h2.92l.3,1.6.2.2.2-.2c1.01-1.3,2.21-1.9,3.52-1.9.6,0,1.01,0,1.61.3v2.9h-1.91c-1.91,0-3.42,1.5-3.52,3.4v8.7h-3.22v-15h-.1Z"/>
    <path class="cls-1" d="M132.87,14.6h2.62v-.7c0-1.8-1.21-2.6-2.92-2.6-1.41,0-2.31.7-2.82,2l-2.82-.6c.6-2.5,2.82-4.2,5.73-4.2,4.02,0,6.03,2,6.03,5.9v9.3h-2.72l-.3-2c-1.01,1.5-2.62,2.2-4.73,2.2-2.72,0-4.63-1.6-4.63-4.6,0-2.8,2.62-4.7,6.54-4.7ZM131.56,21.4c1.01,0,2.01-.3,2.72-1,.8-.7,1.21-1.6,1.21-2.8v-.3h-2.72c-1.91,0-3.12.9-3.12,2.3,0,1,.7,1.8,1.91,1.8Z"/>
  </g>
  <g id="Cloche">
    <path class="cls-1" d="M18.1,23.5c1.11-.4,9.15-3.6,10.76-4.2.2-.1.2-.3.1-.4-.2-.2-.5-.4-1.11-.4-.8,0-7.74,2.2-7.74,2.2,0,0-3.22.5-3.62.5-.4-.1-.5-.3-.5-.6s.2-.6.8-.6c.6-.1,4.12-.3,4.73-.6.6-.4.5-1,.2-1.1-.5-.2-10.46-.2-15.39-.1H1.91c.4,2.4,1.11,4.5,2.62,6.4,1.41-.7,3.02-1.2,4.83-1.1,1.31-.1,7.44.4,8.75,0Z"/>
    <path class="cls-1" d="M30.17,14.9h-1.31c-.3-7-5.93-12.7-12.97-13h0V.6c0-.3-.2-.6-.6-.6-.3,0-.6.2-.6.6v1.3h0C7.64,2.2,1.91,7.8,1.71,14.9H.6c-.3,0-.6.2-.6.6,0,.3.2.6.6.6h29.57c.3,0,.6-.2.6-.6s-.2-.6-.6-.6ZM9.66,4.7c-.91,1.1-2.92,4.1-3.12,8.3,0,.4-.3.7-.6.7h-1.31c-.4,0-.7-.5-.6-1,.4-1.7,1.71-5.4,5.53-8.1.1-.1.2,0,.1.1Z"/>
  </g>
</svg>