<?xml version="1.0" encoding="UTF-8"?>
<svg id="Layer_1" data-name="Layer 1" xmlns="http://www.w3.org/2000/svg" xmlns:xlink="http://www.w3.org/1999/xlink" viewBox="0 0 438.34 171.06">
  <defs>
    <style>
      .cls-1 {
        clip-path: url(#clippath);
      }

      .cls-2 {
        fill: none;
      }

      .cls-2, .cls-3, .cls-4, .cls-5, .cls-6 {
        stroke-width: 0px;
      }

      .cls-7 {
        clip-path: url(#clippath-1);
      }

      .cls-8 {
        clip-path: url(#clippath-3);
      }

      .cls-9 {
        clip-path: url(#clippath-2);
      }

      .cls-3 {
        fill: #272626;
      }

      .cls-3, .cls-4, .cls-5 {
        fill-rule: evenodd;
      }

      .cls-4 {
        fill: #bebfc3;
      }

      .cls-5, .cls-6 {
        fill: #e8a941;
      }
    </style>
    <clipPath id="clippath">
      <rect class="cls-2" x="0" y="0" width="127.13" height="171.05"/>
    </clipPath>
    <clipPath id="clippath-1">
      <rect class="cls-2" x="0" y="0" width="127.13" height="171.05"/>
    </clipPath>
    <clipPath id="clippath-2">
      <rect class="cls-2" x="0" y="0" width="127.13" height="171.05"/>
    </clipPath>
    <clipPath id="clippath-3">
      <rect class="cls-2" x="0" y="0" width="127.13" height="171.05"/>
    </clipPath>
  </defs>
  <path class="cls-6" d="M155.46,112.1c2.49,0,4.78-.11,6.86-.32s3.91-.45,5.47-.73c1.81-.3,3.47-.64,4.97-1.04l-.92,5.12c-.25-.02-.63-.04-1.14-.06s-1.07-.04-1.69-.06-1.28-.04-1.96-.05-1.33-.02-1.95-.03-1.15-.02-1.63-.03-.82-.02-1.03-.02h-13.66v-.13c.13-.44.25-.99.36-1.64s.22-1.47.3-2.44.15-2.12.19-3.46.06-2.9.06-4.7v-20.59c0-1.79-.02-3.36-.06-4.7s-.11-2.5-.19-3.48-.18-1.8-.3-2.45-.24-1.2-.36-1.64v-.13h7.59v.13c-.13.44-.25.99-.36,1.64s-.21,1.47-.28,2.45-.14,2.14-.19,3.48-.08,2.9-.08,4.7v30.17M185.22,94.8c2.07.38,3.96.42,5.68.11s3.19-.96,4.43-1.96,2.19-2.36,2.88-4.06,1.03-3.8,1.03-6.26c0-1.71-.18-3.26-.54-4.67s-.89-2.59-1.6-3.57-1.6-1.74-2.67-2.28-2.33-.81-3.76-.81c-.91,0-1.7.04-2.37.11s-1.24.15-1.71.24c-.55.11-1,.22-1.36.35v22.8M178.55,69.53c.42.04.86.08,1.33.13.4.04.85.07,1.34.08s1.01.02,1.53.02c.82,0,1.93-.1,3.34-.3s3.19-.3,5.36-.3c2.02,0,3.9.3,5.61.89s3.21,1.45,4.48,2.59,2.25,2.52,2.96,4.16,1.06,3.49,1.06,5.58c0,2.8-.56,5.23-1.68,7.27s-2.61,3.7-4.49,4.97-4.04,2.12-6.48,2.58-5.01.48-7.69.08v5.25c0,1.79.03,3.36.08,4.7s.12,2.49.19,3.46.17,1.78.28,2.44.24,1.2.36,1.64v.13h-7.59v-.13c.13-.44.25-.99.36-1.64s.22-1.47.3-2.44.15-2.12.19-3.46.06-2.9.06-4.7v-20.59c0-1.79-.02-3.36-.06-4.7s-.11-2.5-.19-3.48-.18-1.8-.3-2.45-.24-1.2-.36-1.64v-.13M271,109.57c0,.23-.03.47-.08.73s-.17.46-.36.63c-.95.72-1.98,1.38-3.08,1.98s-2.3,1.12-3.59,1.57-2.67.79-4.16,1.03-3.08.36-4.79.36c-3.84,0-7.34-.56-10.5-1.69s-5.88-2.73-8.14-4.79-4.02-4.55-5.27-7.45-1.87-6.12-1.87-9.66c0-2,.26-3.97.77-5.91s1.27-3.78,2.26-5.53,2.21-3.36,3.67-4.82,3.12-2.74,4.98-3.81,3.92-1.91,6.17-2.51,4.68-.9,7.29-.9c1.01,0,2.05.05,3.1.14s2.1.23,3.13.41,2.03.4,2.99.65,1.87.54,2.74.85l2.15,5.85-.25.13c-.82-.74-1.77-1.42-2.85-2.06s-2.22-1.18-3.45-1.64-2.5-.83-3.84-1.09-2.69-.4-4.06-.4c-2.66,0-5.09.42-7.31,1.25s-4.12,2.04-5.71,3.62-2.83,3.52-3.72,5.82-1.33,4.91-1.33,7.84c0,3.23.42,6.22,1.27,8.98s2.1,5.16,3.76,7.18,3.75,3.61,6.25,4.76,5.41,1.72,8.74,1.72c1.48,0,2.79-.12,3.95-.35s2.14-.52,2.94-.87,1.41-.73,1.82-1.14.62-.79.62-1.12v-1.23c0-1.48-.02-2.75-.06-3.83s-.11-2.01-.19-2.8-.18-1.47-.28-2.04-.23-1.1-.38-1.58v-.13h7.59v.13c-.13.44-.25.96-.36,1.57s-.22,1.31-.3,2.13-.15,1.79-.19,2.89-.06,2.39-.06,3.84v1.3M279.13,69.53c2.64,0,5.26-.01,7.86-.03s4.99-.05,7.16-.08,4.03-.08,5.57-.14,2.58-.15,3.13-.25l-1.55,4.21c-.7-.19-1.51-.36-2.44-.51-.8-.13-1.78-.25-2.93-.36s-2.47-.17-3.97-.17c-.51,0-1.11.02-1.82.05s-1.39.07-2.04.11c-.76.04-1.53.08-2.31.13v17.27c2.17-.02,4.13-.08,5.88-.19s3.24-.21,4.46-.32c1.43-.13,2.7-.27,3.8-.44l-.98,4.59c-1.45-.19-2.94-.37-4.46-.54-1.31-.15-2.73-.28-4.27-.4s-3.02-.17-4.43-.17v19.83c2.49,0,4.78-.11,6.86-.32s3.91-.45,5.47-.73c1.81-.3,3.47-.64,4.97-1.04l-.92,5.12c-.25-.02-.63-.04-1.14-.06s-1.07-.04-1.69-.06-1.28-.04-1.96-.05-1.33-.02-1.95-.03-1.15-.02-1.63-.03-.82-.02-1.03-.02h-13.66v-.13c.13-.44.25-.99.36-1.64s.22-1.47.3-2.44.15-2.12.19-3.46.06-2.9.06-4.7v-20.59c0-1.79-.02-3.36-.06-4.7s-.11-2.5-.19-3.48-.18-1.8-.3-2.45-.24-1.2-.36-1.64v-.13h0M347.54,76.49l-.28.13c-1.64-1.52-3.62-2.73-5.93-3.64s-4.84-1.36-7.61-1.36-5.09.42-7.31,1.25-4.12,2.04-5.71,3.62-2.83,3.52-3.72,5.82-1.33,4.91-1.33,7.84c0,3.23.42,6.24,1.27,9.03s2.1,5.21,3.76,7.26,3.75,3.65,6.25,4.82,5.41,1.76,8.74,1.76c1.2,0,2.4-.13,3.61-.38s2.36-.63,3.46-1.12,2.15-1.1,3.13-1.8,1.87-1.51,2.67-2.42l.35.22-2.53,6.45c-1.58.61-3.33,1.08-5.23,1.41s-3.83.49-5.77.49c-3.9,0-7.47-.56-10.71-1.69s-6.02-2.73-8.35-4.79-4.14-4.55-5.44-7.45-1.95-6.12-1.95-9.66c0-2,.26-3.97.77-5.91s1.27-3.78,2.26-5.53,2.21-3.36,3.67-4.82,3.12-2.74,4.98-3.81,3.92-1.91,6.17-2.51,4.68-.9,7.29-.9c4.07,0,7.84.62,11.32,1.87l2.15,5.85M333.4,65.7c-1.22-1.1-2.49-2.19-3.8-3.29-1.14-.95-2.39-1.96-3.76-3.04s-2.74-2.08-4.11-3l.73-1.17c.93.48,1.89.96,2.88,1.44s1.97.93,2.93,1.36,1.88.83,2.75,1.2,1.67.68,2.39.93c.72-.25,1.52-.57,2.4-.95s1.81-.79,2.77-1.22,1.93-.89,2.93-1.36,1.94-.94,2.85-1.41l.73,1.17c-1.37.93-2.74,1.93-4.11,3s-2.63,2.09-3.76,3.04c-1.31,1.1-2.57,2.19-3.8,3.29M354.65,114.76c.13-.44.25-.99.36-1.64.12-.65.22-1.47.3-2.44s.15-2.12.19-3.46.06-2.9.06-4.7v-20.59c0-1.79-.02-3.36-.06-4.7s-.11-2.5-.19-3.48-.18-1.8-.3-2.45c-.12-.65-.24-1.2-.36-1.64v-.13h7.59v.13c-.13.44-.25.99-.36,1.64s-.21,1.47-.28,2.45-.14,2.14-.19,3.48-.08,2.9-.08,4.7v7.05l18.47-15.09c2.07-1.69,3.1-3.14,3.1-4.36h8.89v.13c-1.24.3-2.5.86-3.78,1.69s-2.63,1.85-4.06,3.05l-16.32,13.66,19.64,21.57c.82.84,1.52,1.54,2.1,2.1s1.09,1.02,1.53,1.39.85.67,1.22.92.75.48,1.15.71v.13h-9.27c-.08-.19-.23-.43-.43-.73s-.43-.6-.7-.92-.55-.64-.85-.98-.6-.65-.87-.95l-19.83-21.76v12.97c0,1.79.03,3.36.08,4.7s.12,2.49.19,3.46.17,1.78.28,2.44.24,1.2.36,1.64v.13h-7.59v-.13M413.92,68.77c3.52,0,6.77.57,9.76,1.72s5.56,2.76,7.73,4.84,3.87,4.57,5.09,7.48,1.83,6.13,1.83,9.65c0,2-.23,3.97-.7,5.91s-1.14,3.77-2.04,5.5-2,3.33-3.31,4.79-2.8,2.73-4.48,3.8-3.53,1.9-5.55,2.5-4.21.9-6.55.9c-3.52,0-6.77-.56-9.76-1.69s-5.56-2.73-7.73-4.79-3.87-4.55-5.09-7.45-1.83-6.12-1.83-9.66c0-2,.23-3.97.7-5.91s1.14-3.78,2.04-5.53,1.99-3.36,3.29-4.82,2.78-2.74,4.46-3.81,3.53-1.91,5.57-2.51,4.22-.9,6.56-.9M415.72,113.02c2.34,0,4.48-.42,6.42-1.27s3.61-2.07,5.01-3.67,2.49-3.56,3.27-5.87,1.17-4.93,1.17-7.86c0-3.25-.37-6.26-1.12-9.03s-1.86-5.18-3.34-7.21-3.32-3.63-5.52-4.78-4.77-1.72-7.7-1.72c-2.34,0-4.48.42-6.42,1.25s-3.61,2.04-5.01,3.62-2.49,3.52-3.27,5.82-1.17,4.91-1.17,7.84c0,3.23.37,6.24,1.11,9.03s1.84,5.21,3.32,7.26,3.32,3.65,5.53,4.82,4.79,1.76,7.72,1.76"/>
  <g class="cls-1">
    <g>
      <g class="cls-7">
        <path class="cls-4" d="M127.13,121.79c0-1.76-1.06-3.29-3.14-4.55-1.41-12.32-12.27-23.43-25.45-26.27v-.12c-.01-2.46-1.44-4.7-3.66-5.75-1.07-2.32-2.49-4.46-4.23-6.34-2.52-2.68-5.78-4.56-9.36-5.41-.37-.31-.79-.55-1.25-.73-1.08-.44-2.13-.94-3.14-1.51-1.35-.9-2.9-1.45-4.51-1.61h-.03c7.73-3.58,12.25-17.42,12.25-38.08C84.61,6.57,66.32,0,56.65,0c-.33,0-.66.01-.92.03-8.85.35-17.34,5.62-22.15,13.74-5.33,8.99-5.5,19.95-.53,31.05-3.21,1.49-9.33,5.58-9.33,15.09.07,5.41,2.59,10.5,6.84,13.84-3.02.96-5.75,2.67-7.92,4.98-2.48,2.48-7.13,10-7.3,20.93-.67,1.38-1.67,3.66-2.19,4.86-2.12,1.52-3.24,4.07-2.93,6.66C7.54,116.76.12,137.78,0,142.72c-.1,1.84,1.04,5.07,6.04,6.13.46.1.9.27,1.31.5,2.18,1.22,4.55,2.05,7.02,2.46,0,1.92-.01,4.96,0,9.06-2.96-.97-5.89-2.04-8.8-3.21-.22-.09-.48.01-.58.23-.1.22-.01.48.2.59,7.91,4.14,16.29,7.3,24.97,9.41,8.67,2.1,17.57,3.16,26.49,3.15h.01c8.92,0,17.81-1.05,26.47-3.15,8.68-2.11,17.06-5.26,24.97-9.41.21-.11.3-.37.2-.59-.1-.22-.36-.32-.58-.23-5.04,2.05-10.2,3.78-15.46,5.2-2.31-8.67-4.39-15.23-5.07-17.34.38-1.58,1.29-5.42,1.94-8.76.68.34,1.37.64,2.08.91.55.68,1.03,1.41,1.45,2.18,1.45,2.47,3.61,6.15,8.02,6.52,1.82,1.1,3.88,1.72,6.01,1.8h0c4.27,0,6.94-3.22,7.8-6.57,2.36-3.88.47-7.46-.92-10.1-.31-.59-.62-1.17-.86-1.71,14.43-2.47,14.42-6.63,14.41-8.03Z"/>
      </g>
      <g class="cls-9">
        <path class="cls-5" d="M113.61,76.9c0,.06.06.1.12.09s.1-.05.11-.1c.4-3.81-1.62-7.59-4.05-10.45-4.06-4.78-16.21-12.83-17.68-21.91-.37-2.3-.15-6.88,1.54-8.98.07-.09-.05-.21-.15-.16-2.48,1.23-4.66,4.32-4.66,8.85,0,15.65,21.71,20.34,24.77,32.64ZM114.64,85.93c-1.45-9.29-24.43-18.41-26.55-32.22,0-.06-.06-.1-.11-.09s-.1.05-.11.1c-3.67,16.73,22.68,23.66,25.1,33.33.57,1.86.15,3.89-1.12,5.37-.04.04-.04.1,0,.14.03.04.09.06.14.03,1.1-.58,3.34-2.32,2.66-6.65h0Z"/>
      </g>
      <g class="cls-8">
        <path class="cls-3" d="M57.76,82.57c-.41,0-.8.16-1.09.45-.29.29-.45.68-.45,1.09,0,.85.69,1.55,1.55,1.55.85,0,1.55-.69,1.55-1.55,0-.41-.16-.8-.45-1.09-.29-.29-.68-.45-1.1-.45ZM57.76,93.37c-.85,0-1.55.69-1.55,1.55,0,.85.69,1.55,1.55,1.55.41,0,.8-.16,1.09-.45.29-.29.45-.68.45-1.09,0-.41-.16-.81-.45-1.1s-.68-.45-1.1-.45h0ZM40.47,157.07c-.21,2.61-.41,5.89-.59,9.48.44.05.88.1,1.32.15l-.29-9.62c0-.12-.09-.23-.22-.23-.12,0-.23.09-.23.22ZM124.53,121.79c0-1.05-1.08-2.04-3.01-2.92-.69-13.44-13.28-24.31-26.28-25.82v-.02c.45-.63.7-1.4.7-2.18,0-1.77-1.23-3.29-2.96-3.67-1.01-2.41-2.42-4.64-4.17-6.59-2.37-2.51-5.45-4.23-8.84-4.9-.23-.28-.52-.5-.86-.64-3.9-1.49-6.36-4.04-7.92-2.44-1.45-.74-2.77-1.48-3.69-2.03-.84-.5-1.36-1.41-1.36-2.39v-4.95c2.39-2.12,4.45-4.58,6.13-7.3-.19,2.11-.65,4.19-1.35,6.19-.02.05,0,.11.05.15.05.03.11.03.15,0,1.36-1,3.43-5.37,4.5-11.52.01-.07.07-.11.14-.11.07,0,.12.06.12.12.55,8.05-3.28,14.32-6.7,16.74-.05.03-.07.1-.05.16.02.06.08.09.14.08,6.57-.97,12.74-12.15,12.74-36.32S62.91,2.6,56.65,2.6c-.27,0-.55.01-.82.03-15.63.62-31.52,18.88-19.62,42.83-.34.67-.9,1.21-1.59,1.51-3.89,1.62-8.31,5.5-8.31,12.95s5.93,12.79,8.48,13.15c.05,0,.1-.02.13-.06.03-.04.03-.1,0-.14-.8-1.34-.93-2.98-.37-4.44.02-.06.07-.09.13-.09.06,0,.11.05.12.11.16,1.25.73,2.42,1.62,3.32.04.04.1.05.15.02s.08-.07.08-.13c-.29-3.09,1.25-4.16,3.71-4.63,2.09-.4,5.23-1.6,6.61-3.57.03-.04.07-.05.12-.04.04.01.07.06.07.1v4.65c0,.98-.52,1.89-1.36,2.39-.92.54-2.24,1.29-3.69,2.03-1.56-1.6-4.01.94-7.91,2.44-.34.13-.64.35-.86.64-3.38.68-6.47,2.39-8.84,4.9-2.16,2.16-6.55,9.36-6.55,19.72-.79,1.51-2.73,6.05-2.73,6.05,0,0-3.02,1.22-2.3,5.32-2.3,4.03-10.29,27.06-10.29,31.16,0,0-.25,2.59,3.99,3.49.73.15,1.43.42,2.08.8,2.58,1.38,5.41,2.22,8.33,2.48-.03,1.05-.04,6.44-.03,12.1,1.02.31,2.04.61,3.07.89.02-7.44.06-15.73.06-15.73,0-6.79,4.65-11.23,10.69-11.63.05,0,.09.03.1.07,0,.05-.02.09-.06.11-3.65,1.15-6.31,4.31-6.81,8.11-.45,3.48-.34,7.02.32,10.47,0,.1.09.18.19.18.1,0,.18-.07.19-.17-.01-4.29.34-10.88,3.98-14.51,2.12-1.94,4.93-2.93,7.8-2.75,3.1.96,6.91,2.36,9.09,2.49,3.45.21,4.03,2.3,4.03,2.3,0,0,.62.37,3.93.08,5.51-.24,12.03-2,16.71-2.14,1.34.04,2.41,1.11,2.47,2.45.07.38.2.74.38,1.08,1.02,2.28,1.83,4.65,2.42,7.07.23.75.04,1.56-.48,2.14-2.52,2.46-5.29,4.65-8.27,6.54-.86.22-6.46-2.79-6.46-2.79,0-.93,3.76-2.83,4.44.22,0,.03.03.05.06.06s.06,0,.07-.03c.3-.65.25-1.41-.12-2.02,1.33-.34,2.38-1.35,2.76-2.67,0-.03,0-.06-.03-.08-.03-.02-.06-.01-.09,0-.88.81-3.03,1.4-6.18.88-.73-.12-1.28.82-4.07.79-4.46-.04-5.71-2.53-7.76-3.68-.03-.02-.07-.01-.09.01s-.03.06,0,.09c.4.62.84,1.22,1.32,1.78l-4.01-.47c0-2.14-.72-6.14,1.74-7.85.03-.02.04-.05.03-.08-.01-.03-.04-.05-.07-.04-2.07.31-3.45,2.46-3.45,4.86v19.32c3.89.33,7.8.5,11.75.51h.05c11.16.01,22.28-1.34,33.11-4.03-2.82-10.58-5.25-17.88-5.25-17.88,0,0,2.27-9.18,2.7-13.06,1.62,1.19,3.4,2.13,5.29,2.8,2.6,1.76,3.64,8.45,8.95,8.45,7.51,4.5,10.13-.72,10.63-3.23,2.98-4.33-2.03-8.17-2.45-12.16l.89-.89c8.48-1.26,14.02-3.38,14.02-5.76h0ZM17.16,146.41c-3.13-.48-6.17-1.4-9.03-2.75-1.3-.71-1.99-2.17-1.71-3.62,1.14-5.94,5.43-17.75,8.72-26.04,2.35,1.8,4.86,3.36,7.52,4.66l-5.15,14.68c-3.21.49-5.99,2.47-7.51,5.34-.01.03,0,.07.02.09.03.02.07.02.09,0,3.07-2.37,7.07-3.18,10.81-2.18,3.75,1-3.76,2.87-3.76,9.82ZM23.62,134.42c-.75-.31-1.52-.57-2.3-.79.93-2.8,3.6-7.99,5.9-13.46.63-.18,1.17-.59,1.51-1.15.37.81.83,1.59,1.37,2.3-.36,1.94.65,8.35,1.15,11.08-2.02,0-5.4.36-7.63,2.02h0ZM33.5,120.52c-2.82-1.86-6.85-12.9-1.55-20.8.04-.05.03-.13-.01-.18-.05-.05-.12-.06-.18-.02-1.76,1.09-4.69,5.42-4.99,10.62l-1.65,2.83-2.28-1.14c-.05-.03-.11-.02-.16.02s-.06.1-.04.15c.8,1.39,1.85,2.61,3.1,3.61.05.04.07.11.04.17-.03.06-.09.09-.16.08-2.26-.49-6.96-2.85-9.08-5.38.72-1.85,1.54-3.67,2.45-5.43.37,1.25,1.04,2.4,1.95,3.33.04.04.11.05.17.02.05-.03.08-.09.07-.15-3.06-13.1,2.73-23.67,5.01-25.94,1.78-1.92,4.06-3.29,6.59-3.96-.07,7.42,2.58,28.32.7,42.17ZM92.85,88.15c.39,0,.76.15,1.03.42s.43.64.43,1.03-.15.76-.43,1.03-.64.43-1.03.42c-.39,0-.76-.15-1.03-.43-.27-.27-.43-.64-.43-1.03,0-.39.15-.76.43-1.03s.64-.43,1.03-.43h0ZM87.09,82.32c1.38,1.55,2.51,3.31,3.36,5.21-1.24.64-2.02,1.92-2.03,3.32,0,.79.26,1.56.73,2.2-2.8.34-5.55,1.07-8.15,2.17-.07-6.66-.19-12.6-.5-16.86,2.53.67,4.81,2.04,6.59,3.96h0ZM92.19,95.59c3.62,1.44,10.92,11.07,10.92,17.27-1.36,1.72-8.45,3.01-11.32,3.27-.09,0-.15.08-.16.16s.04.17.13.19c4.54,1.5,16.9,2.09,20.24,2.22.09,0,.16.07.17.16.01.09-.04.17-.13.2-6.68,1.91-45.16,2.56-45.16-2.44,1.9-12.06,13.92-21.04,25.32-21.04h0ZM36.44,51.96c-2.55,1.59-7.1,6.47-4.5,16,.01.04,0,.08-.04.1-.03.02-.08.01-.1-.01-1.96-2.25-3.04-5.13-3.04-8.12,0-6.42,3.76-9.28,6.32-10.48.04-.02.08,0,.11.03.02.03.02.08-.01.11-1.37,1.33-2.44,2.94-3.13,4.72-.02.04,0,.08.04.11.04.02.08.01.11-.02,1.04-1.34,2.53-2.27,4.19-2.6.04,0,.08.02.09.05.01.04,0,.08-.03.1h0ZM37.88,42.5s-.03.08-.08.09-.08-.03-.09-.07c-1.02-4.83-1.09-9.81-.21-14.67,0-.04-.01-.08-.05-.1-.04-.02-.08,0-.1.03-.53.76-1.8,3.02-1.8,7.37,0,.04-.03.08-.08.08-.04,0-.08-.02-.09-.06-2.01-8.84.14-14.55,2.25-18.32,2.89-5.21,7.66-9.11,13.33-10.92.04-.01.09,0,.11.05.02.04,0,.09-.04.11-6.01,3.84-10.28,9.88-11.88,16.83,0,.04.01.08.05.1.04.02.08,0,.11-.03,2.17-3.33,9.42-8.19,15.83-7.73.04,0,.08.04.08.08s-.02.08-.06.09c-5.05,1.22-9.23,5.06-11.87,8.69-4.1,5.63-5.38,12.57-5.4,18.4h0ZM48.16,126.78c-1.43.4-2.91.6-4.4.6-3.39,0-6.7-1.04-9.47-2.99-.04-.03-.05-.08-.03-.12.02-.04.07-.06.12-.05,2.93,1.13,6.04,1.7,9.18,1.7,1.39,0,2.78-.12,4.15-.35.09-.01.17.03.21.11.11.27.23.54.36.82.02.05.02.11,0,.16-.02.05-.07.09-.12.11h0ZM53.17,129.08c-5.41-9.56-10.11-29.42-10.75-50.63,7.38-.72,9.05.51,10.4,1.51l.3.22c-.27,8.28,0,15.54.27,22.65.33,8.77.64,17.13-.22,26.25h0ZM53.23,77.36c-1.37-.81-2.91-1.29-4.49-1.38-.05,0-.09-.04-.11-.08-.02-.05,0-.1.03-.14,1.6-1.63,1.75-5.12,1.71-7.97.8.5,1.62.96,2.47,1.37.3.11.61.21.92.29-.24,2.75-.41,5.38-.53,7.91h0ZM40.83,49.1c-.44-3.23-.41-6.51.07-9.74.53-1.31,1.2-2.56,1.98-3.74,1.25-.43,3.17-.37,6.98,1.44.79.37,1.65.55,2.52.52.02,0,.04-.02.04-.04-.01-.82-.31-1.6-.84-2.23-1.09.54-5.41-1.43-8.15-.48,5.13-6.94,13.13-8.66,16.41-14.68,2.89,5.5,6.53,10.57,10.81,15.07-2.61-1.8-7.75.66-8.96.07-.53.62-.82,1.41-.84,2.23,0,.02.02.04.04.04.87.03,1.73-.15,2.52-.52,5.24-2.48,6.91-1.67,8.15-.81-.02-.03-.04-.06-.06-.09.11.12.23.24.34.35.56,3.7.82,7.44.77,11.19-.02.49-.1.96-.16,1.41-2.15,6.8-6.83,12.51-13.07,15.96-.89.27-1.82.42-2.75.42-.93,0-1.86-.15-2.75-.42-6.24-3.45-10.92-9.16-13.07-15.95ZM64.65,75.76s.05.09.03.14c-.02.05-.06.08-.11.08-2,.1-3.92.83-5.49,2.08-.66.61-1.53.94-2.42.92-.73.04-1.46-.19-2.04-.64.12-2.75.29-5.62.55-8.63.49.06.99.09,1.49.09,1.3.01,2.59-.2,3.81-.63.85-.41,1.67-.87,2.47-1.38-.04,2.84.11,6.34,1.71,7.97h0ZM62.34,124.49c-1.68,4.01-3.49,7.06-5.3,8.82-.22.21-.56.21-.78,0-.69-.69-1.32-1.44-1.87-2.25,1.1-9.93.76-18.87.41-28.28-.26-6.86-.52-13.87-.29-21.8.68.26,1.41.38,2.13.36,1.4.03,2.77-.46,3.83-1.38,1.35-1,3.02-2.23,10.4-1.51-.27,9.07-1.29,18.11-3.04,27.01-2.95,3.88-4.69,8.54-4.99,13.41-1.92.89-3.01,1.88-3.01,2.92,0,.95.89,1.86,2.5,2.69h0ZM87.48,130.97l-5.73-1.44c-.07-.02-.13-.06-.16-.13-.03-.06-.03-.14,0-.2.16-.36.46-.62.84-.73,1.42.1,1.68.13,3.18.18,1.94.41,3.86.95,5.74,1.6.03.01.07,0,.09-.03.02-.03.01-.07,0-.09-.64-.58-1.38-1.05-2.18-1.37,1.03.02,1.88.03,2.94.03h.66c2.57.81,3.58,1.87,5.16,1.92.42.01.85-.03,1.26-.14.03,0,.06-.04.06-.07s-.02-.06-.06-.07c-.54-.12-1.06-.3-1.55-.54l3.14-1.35c2.17-.13,4.24-.31,6.19-.53.47.44.76,1.04.81,1.68,0,.1-.03.2-.11.27-.08.07-.18.1-.28.09-1.21-.38-2.49-.47-3.74-.27-4.25,5.58-10.49,5.52-16.26,1.18h0ZM109.41,139.39l-.13.64c-.37,3.45-2.44,3.08-3.88,2.36-.76-.4-1.39-1.01-1.83-1.75-.63-1.06-1.64-1.86-2.82-2.22-.03,0-.07,0-.09.04s-.02.07,0,.1c.37.73.53,1.54.48,2.35-3.25-.81-3.93-3.42-5.05-5.24,5.85.21,7.46-4.53,10.94-4.23,1.4,2.66,4.23,6.05,2.38,7.95h0ZM92.19,125.65c-14.65,0-24.06-1.84-28.03-3.26-1.17-.42-2.04-1.5-.15-2.15,14.42,5.05,45.77,3.26,56.16,1.76.09-.01.18.04.2.13.02.09-.02.18-.11.22-3.86,1.58-13.38,3.28-28.07,3.28h0ZM55.52,52.39c.34.2.74.3,1.13.3.4,0,.79-.1,1.13-.3.68-.38,1.41-.93,1.41-1.56-.01-.15-.08-.3-.2-.39-.12-.1-.27-.14-.43-.12-.45.08-1.16,1.04-1.91,1.04s-1.45-.96-1.91-1.04c-.15-.02-.3.03-.42.13-.12.1-.19.24-.2.39,0,.62.72,1.18,1.4,1.55h0ZM57.77,72.01c-.41,0-.8.16-1.09.45-.29.29-.45.68-.45,1.09,0,.41.16.8.45,1.09.29.29.68.45,1.09.45.41,0,.8-.16,1.09-.45.29-.29.45-.68.45-1.09,0-.41-.16-.81-.45-1.1s-.69-.46-1.1-.45h0ZM51.44,41.79c-.04.23-.1.46-.19.67,0,.02,0,.04,0,.05.01.01.03.02.05.01.57-.2,1.07-.56,1.45-1.03.38-.47-3.79-3.68-8-1.49.56-.73,1.32-1.29,2.18-1.62.02,0,.03-.03.03-.05,0-.02-.03-.04-.05-.04-1.51.2-2.81,1.16-3.44,2.55.2.87.83,1.58,1.67,1.89-.19-.29-.33-.61-.43-.94.56-.45,1.21-.78,1.9-.96-.25.33-.39.73-.39,1.15,0,.52.22,1.01.59,1.37.43.07.86.1,1.3.1.43,0,.87-.04,1.3-.1.38-.36.59-.85.59-1.37,0-.36-.1-.72-.3-1.02.61.2,1.18.48,1.72.83h0ZM55.14,56.61c-.59-.22-1.16-.5-1.7-.82.28-.04.61-.12.91-.16.73.32,1.51.52,2.31.58.8-.06,1.58-.26,2.31-.58.29.05.63.12.91.16-.54.33-1.11.6-1.7.82-.02,0-.04.03-.03.06,0,.02.03.04.06.03,2.38-.31,4.44-2.03,4.42-2.78-.13-.17-.48.16-1.09.67-1.2-.29-2.42-.45-3.65-.49l-1.11.55c-.07.03-.15.03-.21,0l-1.07-.55c-1.24.04-2.48.2-3.69.49-.62-.52-.96-.85-1.09-.67-.02.75,2.04,2.47,4.42,2.78.02,0,.03,0,.04-.02.01-.01.01-.03,0-.05,0-.02-.02-.03-.04-.03h0ZM59.61,58.85s0-.07-.02-.1c-.03-.03-.06-.04-.1-.03-.92.26-1.87.41-2.83.42-.96-.02-1.91-.16-2.83-.42-.04-.01-.07,0-.1.03-.03.03-.03.07-.02.1.5,1.19,1.66,1.97,2.95,1.97,1.29,0,2.45-.79,2.94-1.98h0ZM57.77,125.71c-.85,0-1.55.69-1.55,1.55,0,.86.69,1.55,1.55,1.55.41,0,.81-.16,1.1-.45.29-.29.45-.68.45-1.1,0-.41-.16-.81-.46-1.1-.29-.29-.69-.45-1.1-.45h0ZM57.77,115.11c-.85,0-1.55.69-1.55,1.55s.69,1.55,1.55,1.55c.86,0,1.55-.69,1.55-1.55,0-.41-.16-.81-.45-1.1-.29-.29-.69-.45-1.1-.45h0ZM62.01,42.52s.04,0,.05-.01c.01-.01.02-.03,0-.05-.09-.22-.15-.44-.19-.67.54-.35,1.12-.63,1.73-.83-.2.3-.3.66-.3,1.02,0,.52.22,1.01.59,1.37.43.07.86.1,1.3.1.43,0,.87-.04,1.3-.1.38-.36.59-.85.59-1.37,0-.42-.14-.82-.39-1.15.7.18,1.34.51,1.9.96-.1.33-.25.65-.43.94.84-.31,1.47-1.02,1.67-1.89-.62-1.39-1.93-2.35-3.44-2.55-.02,0-.04.01-.05.04,0,.02,0,.04.03.05.86.33,1.62.89,2.18,1.62-4.22-2.18-8,1.49-8,1.49.38.47.88.82,1.45,1.02h0ZM57.77,104.31c-.85,0-1.55.69-1.55,1.55s.69,1.55,1.55,1.55c.86,0,1.55-.69,1.55-1.55,0-.41-.16-.81-.45-1.1-.29-.29-.69-.45-1.1-.45h0Z"/>
      </g>
    </g>
  </g>
</svg>